<svg id="visual" viewBox="0 0 960 540" width="960" height="540" xmlns="http://www.w3.org/2000/svg" xmlns:xlink="http://www.w3.org/1999/xlink" version="1.1"><rect x="0" y="0" width="960" height="540" fill="#1B262C"></rect><path d="M0 484L22.8 479.3C45.7 474.7 91.3 465.3 137 463.5C182.7 461.7 228.3 467.3 274 466.2C319.7 465 365.3 457 411.2 453.7C457 450.3 503 451.7 548.8 456.3C594.7 461 640.3 469 686 471.5C731.7 474 777.3 471 823 467C868.7 463 914.3 458 937.2 455.5L960 453L960 541L937.2 541C914.3 541 868.7 541 823 541C777.3 541 731.7 541 686 541C640.3 541 594.7 541 548.8 541C503 541 457 541 411.2 541C365.3 541 319.7 541 274 541C228.3 541 182.7 541 137 541C91.3 541 45.7 541 22.8 541L0 541Z" fill="#007076"></path><path d="M0 492L22.8 490.2C45.7 488.3 91.3 484.7 137 482.7C182.7 480.7 228.3 480.3 274 481.5C319.7 482.7 365.3 485.3 411.2 482.8C457 480.3 503 472.7 548.8 469.8C594.7 467 640.3 469 686 469.8C731.7 470.7 777.3 470.3 823 473.7C868.7 477 914.3 484 937.2 487.5L960 491L960 541L937.2 541C914.3 541 868.7 541 823 541C777.3 541 731.7 541 686 541C640.3 541 594.7 541 548.8 541C503 541 457 541 411.2 541C365.3 541 319.7 541 274 541C228.3 541 182.7 541 137 541C91.3 541 45.7 541 22.8 541L0 541Z" fill="#005d63"></path><path d="M0 499L22.8 499.2C45.7 499.3 91.3 499.7 137 498C182.7 496.3 228.3 492.7 274 491.2C319.7 489.7 365.3 490.3 411.2 490.3C457 490.3 503 489.7 548.8 488.2C594.7 486.7 640.3 484.3 686 484.7C731.7 485 777.3 488 823 490.8C868.7 493.7 914.3 496.3 937.2 497.7L960 499L960 541L937.2 541C914.3 541 868.7 541 823 541C777.3 541 731.7 541 686 541C640.3 541 594.7 541 548.8 541C503 541 457 541 411.2 541C365.3 541 319.7 541 274 541C228.3 541 182.7 541 137 541C91.3 541 45.7 541 22.8 541L0 541Z" fill="#004b50"></path><path d="M0 503L22.8 504.8C45.7 506.7 91.3 510.3 137 512.5C182.7 514.7 228.3 515.3 274 513.2C319.7 511 365.3 506 411.2 503.2C457 500.3 503 499.7 548.8 500.5C594.7 501.3 640.3 503.7 686 505.7C731.7 507.7 777.3 509.3 823 511C868.7 512.7 914.3 514.3 937.2 515.2L960 516L960 541L937.2 541C914.3 541 868.7 541 823 541C777.3 541 731.7 541 686 541C640.3 541 594.7 541 548.8 541C503 541 457 541 411.2 541C365.3 541 319.7 541 274 541C228.3 541 182.7 541 137 541C91.3 541 45.7 541 22.8 541L0 541Z" fill="#003a3e"></path><path d="M0 523L22.8 522.2C45.7 521.3 91.3 519.7 137 520.2C182.7 520.7 228.3 523.3 274 523.2C319.7 523 365.3 520 411.2 520.5C457 521 503 525 548.8 525C594.7 525 640.3 521 686 518.2C731.7 515.3 777.3 513.7 823 515.2C868.7 516.7 914.3 521.3 937.2 523.7L960 526L960 541L937.2 541C914.3 541 868.7 541 823 541C777.3 541 731.7 541 686 541C640.3 541 594.7 541 548.8 541C503 541 457 541 411.2 541C365.3 541 319.7 541 274 541C228.3 541 182.7 541 137 541C91.3 541 45.7 541 22.8 541L0 541Z" fill="#00292c"></path></svg>